HIERARCHY
ROOT Hips
{
 OFFSET 0.000000 0.000000 0.000000
 CHANNELS 6 Xposition Yposition Zposition Yrotation Xrotation Zrotation
 JOINT Chest
 {
  OFFSET 0.000000 10.613686 0.001638
  CHANNELS 3 Yrotation Xrotation Zrotation
  JOINT Chest2
  {
   OFFSET 0.000000 11.734762 -0.002975
   CHANNELS 3 Yrotation Xrotation Zrotation
   JOINT Chest3
   {
    OFFSET 0.000000 10.603271 0.000000
    CHANNELS 3 Yrotation Xrotation Zrotation
    JOINT Chest4
    {
     OFFSET 0.000000 10.603271 0.000000
     CHANNELS 3 Yrotation Xrotation Zrotation
     JOINT Neck
     {
      OFFSET 0.000000 14.910246 0.000000
      CHANNELS 3 Yrotation Xrotation Zrotation
      JOINT Head
      {
       OFFSET 0.000000 9.868150 -0.007075
       CHANNELS 3 Yrotation Xrotation Zrotation
       End Site
       {
        OFFSET 0.000000 18.897113 -0.003695
       }
      }
     }
     JOINT RightCollar
     {
      OFFSET -3.234343 8.317614 0.000000
      CHANNELS 3 Yrotation Xrotation Zrotation
      JOINT RightShoulder
      {
       OFFSET -15.044915 0.000000 0.000000
       CHANNELS 3 Yrotation Xrotation Zrotation
       JOINT RightElbow
       {
        OFFSET 0.000000 -32.148912 0.000000
        CHANNELS 3 Yrotation Xrotation Zrotation
        JOINT RightWrist
        {
         OFFSET 0.000000 -26.297024 -0.000000
         CHANNELS 3 Yrotation Xrotation Zrotation
         End Site
         {
          OFFSET 0.000000 -19.670895 0.000000
         }
        }
       }
      }
     }
     JOINT LeftCollar
     {
      OFFSET 3.234343 8.317614 0.000000
      CHANNELS 3 Yrotation Xrotation Zrotation
      JOINT LeftShoulder
      {
       OFFSET 15.044915 0.000000 0.000000
       CHANNELS 3 Yrotation Xrotation Zrotation
       JOINT LeftElbow
       {
        OFFSET 0.000000 -32.148912 0.000000
        CHANNELS 3 Yrotation Xrotation Zrotation
        JOINT LeftWrist
        {
         OFFSET 0.000000 -26.297024 -0.000000
         CHANNELS 3 Yrotation Xrotation Zrotation
         End Site
         {
          OFFSET 0.000000 -19.670895 0.000000
         }
        }
       }
      }
     }
    }
   }
  }
 }
 JOINT RightHip
 {
  OFFSET -8.606440 -0.008026 -0.000819
  CHANNELS 3 Yrotation Xrotation Zrotation
  JOINT RightKnee
  {
   OFFSET 0.000000 -44.644356 0.000775
   CHANNELS 3 Yrotation Xrotation Zrotation
   JOINT RightAnkle
   {
    OFFSET 0.000000 -43.674860 0.001310
    CHANNELS 3 Yrotation Xrotation Zrotation
    JOINT RightToe
    {
     OFFSET 0.000000 -7.291487 16.500499
     CHANNELS 3 Yrotation Xrotation Zrotation
     End Site
     {
      OFFSET 0.000000 -1.618813 6.964468
     }
    }
   }
  }
 }
 JOINT LeftHip
 {
  OFFSET 8.606440 -0.008026 -0.000819
  CHANNELS 3 Yrotation Xrotation Zrotation
  JOINT LeftKnee
  {
   OFFSET 0.000000 -44.644356 0.000775
   CHANNELS 3 Yrotation Xrotation Zrotation
   JOINT LeftAnkle
   {
    OFFSET 0.000000 -43.674860 0.001310
    CHANNELS 3 Yrotation Xrotation Zrotation
    JOINT LeftToe
    {
     OFFSET 0.000000 -7.291487 16.500499
     CHANNELS 3 Yrotation Xrotation Zrotation
     End Site
     {
      OFFSET 0.000000 -1.618813 6.964468
     }
    }
   }
  }
 }
}
MOTION
Frames: 12
Frame Time: 0.008333
-319.385574 94.478777 112.340556 79.189740 -5.346459 3.601736 -1.257471 4.990188 -0.409949 -0.553918 2.218964 -0.168488 -0.553918 2.218964 -0.168488 -0.414775 1.664378 -0.124338 -3.541463 9.435310 3.455835 -4.726029 -16.005597 4.652773 1.576094 -1.253614 7.995351 15.731437 -27.538515 -11.416296 90.449233 -67.007636 -53.043394 43.522244 22.997494 -29.865817 -6.343051 -4.384849 -9.600204 -9.028936 -27.143199 12.035604 9.222477 -52.726077 -49.172940 -36.402258 1.627528 -0.125646 3.672716 -19.924923 -22.466363 -21.020620 67.582045 0.126992 14.517558 -10.296002 17.701785 0.548470 -9.807750 -6.793812 -10.372947 -6.399602 -2.008342 -0.194190 29.527823 -7.046060 -1.244933 -16.081250 1.522273 0.015550 1.260369 -0.547817
-319.863549 94.292589 112.336535 78.978703 -5.409682 3.577215 -1.421125 5.158771 -0.480970 -0.625600 2.294250 -0.197728 -0.625600 2.294250 -0.197728 -0.468395 1.720892 -0.145927 -3.348268 9.205682 3.545279 -4.542828 -16.251813 4.711574 1.581614 -1.553561 8.052522 15.972955 -27.181953 -11.654526 86.932890 -67.805133 -49.049467 45.820300 23.231470 -24.030324 -6.700308 -4.257060 -9.553381 -10.068470 -27.090057 13.217506 8.340032 -53.218006 -47.864038 -34.947455 1.476840 -0.873969 2.330701 -22.656696 -22.696642 -21.082272 71.101649 -1.697450 14.849889 -9.887659 18.413016 0.398078 -8.595491 -5.868039 -9.224687 -6.473804 -2.120959 -1.739462 29.678301 -7.505566 -0.747504 -17.043106 2.745190 -0.005106 1.754408 -1.259257
-320.287365 94.103436 112.302624 78.809326 -5.464291 3.475621 -1.541273 5.358391 -0.485366 -0.678629 2.383106 -0.197660 -0.678629 2.383106 -0.197660 -0.508127 1.787552 -0.145576 -3.210490 8.924972 3.608924 -4.417380 -16.553472 4.759284 1.678965 -1.899338 8.010606 16.306173 -26.792558 -11.995181 83.234416 -68.201097 -45.291417 48.751178 22.513871 -18.452321 -7.051086 -4.254347 -9.647822 -11.395775 -27.145635 14.558343 7.049151 -53.635283 -46.204126 -33.630225 1.539141 -1.098666 0.846740 -25.362482 -22.581962 -22.351787 74.271878 -4.842249 14.972023 -9.699315 19.032693 0.254626 -7.258284 -4.918539 -8.278970 -6.620962 -2.098338 -3.481047 29.943478 -8.284169 -0.105385 -17.843081 3.850931 -0.018454 1.949679 -1.631096
-320.644680 93.931444 112.237458 78.683557 -5.520295 3.332542 -1.614762 5.564813 -0.451794 -0.711377 2.474808 -0.181168 -0.711377 2.474808 -0.181168 -0.532716 1.856320 -0.132973 -3.140318 8.638213 3.613115 -4.352419 -16.862595 4.758954 1.811756 -2.190589 7.915329 16.828657 -26.438916 -12.477204 80.076409 -68.300617 -42.322898 51.801855 21.336456 -13.345449 -7.347683 -4.338849 -9.849121 -12.996017 -27.223101 16.006470 6.119909 -53.854268 -44.955216 -32.344774 1.915866 -1.016234 -0.482705 -27.871355 -22.271546 -25.607951 76.972630 -9.868064 15.019865 -9.479416 19.637239 0.156069 -6.045597 -4.020923 -7.821644 -6.821344 -1.991221 -4.856016 30.266670 -9.134726 0.573971 -18.442172 4.775587 -0.024083 1.912386 -1.761706
-320.925100 93.798187 112.149742 78.598688 -5.539652 3.177582 -1.647224 5.741021 -0.405731 -0.726128 2.552991 -0.159690 -0.726128 2.552991 -0.159690 -0.543838 1.914936 -0.116712 -3.141297 8.385968 3.609193 -4.364145 -17.135457 4.767314 1.958184 -2.421342 7.820560 17.386229 -26.201449 -13.080174 78.184617 -68.369614 -40.593831 54.597529 20.233126 -8.420922 -7.582926 -4.497650 -10.113550 -14.698765 -27.247397 17.442734 5.842388 -53.916102 -44.233481 -31.367408 2.081039 -0.957313 -1.049733 -30.235562 -22.180402 -32.201502 79.443138 -17.605762 15.034001 -9.269797 20.172657 0.095822 -4.987650 -3.225688 -7.562436 -7.006763 -1.892401 -5.847229 30.544568 -9.832880 1.098262 -18.857222 5.524878 -0.024216 1.738385 -1.739005
-321.164739 93.703679 112.082861 78.493312 -5.549480 3.018909 -1.630669 5.903062 -0.363079 -0.719127 2.624845 -0.140379 -0.719127 2.624845 -0.140379 -0.538648 1.968802 -0.102176 -3.159845 8.177797 3.599177 -4.392315 -17.361364 4.771560 2.091522 -2.648239 7.749085 17.820973 -26.109590 -13.695106 77.661125 -68.261067 -40.001462 56.527080 19.304444 -3.901034 -7.728423 -4.768342 -10.365897 -16.326212 -27.191800 18.679226 5.702544 -53.733903 -43.736542 -30.862480 1.676053 -0.627399 -0.904009 -32.447974 -22.489170 -42.138297 81.771426 -28.131105 14.942242 -9.175953 20.580991 0.056148 -4.053374 -2.557227 -7.196207 -7.123784 -1.728827 -6.643659 30.759479 -10.388305 1.383475 -19.159296 6.126338 -0.022170 1.525882 -1.655623
-321.347902 93.632648 112.024277 78.396861 -5.496574 2.858971 -1.586592 6.018585 -0.322606 -0.699961 2.676016 -0.122573 -0.699961 2.676016 -0.122573 -0.524338 2.007156 -0.088847 -3.187705 8.016293 3.578672 -4.426188 -17.537077 4.764165 2.181407 -2.907219 7.686610 18.139180 -26.132274 -14.237864 78.233951 -67.917211 -40.302645 57.133411 18.294619 -0.088056 -7.794420 -5.092041 -10.577532 -17.658779 -27.120806 19.586050 5.977365 -52.682925 -43.749545 -31.186829 0.741582 0.292457 -0.396585 -34.460883 -23.192740 -55.404888 83.822084 -41.666549 14.841815 -9.185951 20.778572 0.040883 -3.240279 -1.966825 -6.953775 -7.299039 -1.363439 -7.139661 30.954123 -10.948021 1.432857 -19.395155 6.618254 -0.019344 1.328991 -1.546970
-321.481905 93.594815 111.991232 78.313406 -5.462469 2.665972 -1.528081 6.114102 -0.279483 -0.674464 2.718287 -0.103873 -0.674464 2.718287 -0.103873 -0.505291 2.038833 -0.074888 -3.221026 7.887077 3.530437 -4.457343 -17.677881 4.725096 2.224658 -3.214527 7.647524 18.376467 -26.187512 -14.720371 79.226574 -67.518544 -40.911172 56.571397 17.743855 2.331091 -7.852712 -5.419535 -10.718802 -18.481348 -27.099804 20.115491 7.370920 -51.424640 -44.804743 -32.166677 -0.128236 1.198547 0.477194 -36.097858 -24.186777 -74.150815 85.413624 -60.387632 14.690820 -9.265886 20.859365 0.048744 -2.544696 -1.429629 -6.911930 -7.478976 -0.907144 -7.381449 31.178577 -11.431579 1.428230 -19.610823 6.995579 -0.016511 1.156639 -1.433361
-321.576219 93.595117 111.967253 78.277027 -5.450824 2.410735 -1.461534 6.179256 -0.214436 -0.645739 2.747000 -0.075675 -0.645739 2.747000 -0.075675 -0.483871 2.060333 -0.053841 -3.276711 7.799661 3.473025 -4.509437 -17.773295 4.679448 2.209518 -3.535504 7.639379 18.633245 -26.251376 -15.147615 79.897432 -67.105474 -41.284693 55.411533 17.497153 3.331312 -7.912594 -5.714343 -10.783471 -18.693140 -27.143276 20.236280 8.942205 -50.279363 -46.240256 -33.018724 -0.330601 1.979262 1.839744 -37.287060 -25.235504 -100.332621 86.134753 -86.042009 14.551948 -9.359292 20.753819 0.085025 -1.996890 -0.928946 -6.992515 -7.642450 -0.565789 -7.399371 31.443764 -11.620121 1.399659 -19.807914 7.249094 -0.013503 1.005467 -1.296514
-321.628073 93.633848 111.926540 78.261619 -5.459200 2.070175 -1.392793 6.218717 -0.110689 -0.616595 2.764197 -0.030431 -0.616595 2.764197 -0.030431 -0.462219 2.073181 -0.020028 -3.340715 7.755125 3.426757 -4.571929 -17.822007 4.646478 2.147162 -3.841226 7.646670 18.910257 -26.326705 -15.557119 80.253034 -66.904995 -41.344567 54.536028 17.605030 3.427531 -7.974138 -5.951365 -10.774260 -18.296498 -27.269470 19.962448 9.969185 -49.493455 -47.318243 -33.131296 0.029512 2.452618 3.444616 -38.099057 -26.158172 -125.293255 86.010782 -110.178017 14.306325 -9.417575 20.640965 0.128147 -1.590151 -0.518948 -7.151077 -7.768725 -0.339239 -7.223656 31.733638 -11.526854 1.355315 -19.971478 7.426432 -0.010653 0.857586 -1.151943
-321.640010 93.710294 111.860741 78.265818 -5.507039 1.666670 -1.331309 6.202409 0.019993 -0.591068 2.756561 0.026690 -0.591068 2.756561 0.026690 -0.443336 2.067398 0.022681 -3.392925 7.797144 3.406586 -4.623651 -17.776176 4.635484 2.078016 -4.004117 7.676393 19.260608 -26.477806 -15.992442 80.273945 -66.918734 -41.155345 54.342321 17.648488 3.146086 -8.017660 -5.994658 -10.706991 -17.368997 -27.513332 19.333188 10.193339 -49.212945 -47.857633 -32.622777 0.534591 2.596222 4.752256 -38.666427 -26.921907 -144.443550 85.623923 -128.559710 13.977212 -9.426622 20.522699 0.164120 -1.308809 -0.224574 -7.348531 -7.814766 -0.148772 -6.966256 31.933499 -11.243211 1.350220 -20.022454 7.485607 -0.007995 0.705336 -1.001791
-321.628559 93.819490 111.782874 78.304658 -5.594661 1.218319 -1.285628 6.138244 0.170468 -0.572804 2.727630 0.092679 -0.572804 2.727630 0.092679 -0.429936 2.045638 0.072054 -3.450355 7.932084 3.438283 -4.690539 -17.629100 4.680089 1.987991 -4.040494 7.700127 19.583625 -26.636202 -16.511421 80.514197 -67.168289 -41.157517 54.547787 17.718508 2.696121 -8.028512 -5.877589 -10.586439 -16.048784 -27.829619 18.420413 9.880706 -49.403893 -48.087005 -31.863584 0.993390 2.521144 5.565146 -38.979116 -27.409621 -159.480101 85.289888 -143.021560 13.649749 -9.407614 20.324548 0.207018 -1.155099 0.007793 -7.556229 -7.764161 0.056958 -6.761141 31.978170 -10.869411 1.442652 -19.926704 7.436554 -0.005665 0.544902 -0.867437
